# xmcd CD database file
# Copyright (C) 1996 Ti Kan
#
# Track frame offsets:
#  150
#  12780
#  26045
#  40008
#  53168
#  66225
#  79053
#  91538
#  104293
#  117475
#  130555
#  143513
#  156688
#  169880
#
# Disc length: 2431 seconds
#
# Revision: 1
# Processed by: cddbd v1.4b41PL1 Copyright (c) Steve Scherf et al.
# Submitted via: CDWizzard Release:4.12
#
DISCID=af097d0e
DTITLE=Smith, Funny Papa - Funny Papa Smith:  The Original Howling Wolf
DYEAR=1900
DGENRE=
TTITLE0=Seven Sisters Blues (Part 1)
TTITLE1=Seven Sisters Blues (Part 2)
TTITLE2=Hungry Wolf
TTITLE3=Corn Whiskey Blues
TTITLE4=Hoppin' Toad Frog
TTITLE5=Mama's Quittin' And Leavin' (Part 1)
TTITLE6=Mama's Quittin' And Leavin' (Part 2)
TTITLE7=Good Coffee Blues
TTITLE8=Honey Blues
TTITLE9=County Jail Blues
TTITLE10=Howling Wolf Blues (Part 1)
TTITLE11=Howling Wolf Blues (Part 2)
TTITLE12=Tell It To The Judge (Part 1)
TTITLE13=Tell It To The Judge (Part 2)
EXTD=
EXTT0=
EXTT1=
EXTT2=
EXTT3=
EXTT4=
EXTT5=
EXTT6=
EXTT7=
EXTT8=
EXTT9=
EXTT10=
EXTT11=
EXTT12=
EXTT13=
PLAYORDER=
